HIERARCHY
ROOT SpineBase
{
  OFFSET 0.000000 0.000000 0.000000
  CHANNELS 6 Xposition Yposition Zposition Zrotation Xrotation Yrotation
  JOINT SpineMid
  {
    OFFSET -0.000000 30.895031 0.000000
    CHANNELS 3 Zrotation Xrotation Yrotation
    JOINT SpineShoulder
    {
      OFFSET 0.748313 23.487828 -0.840631
      CHANNELS 3 Zrotation Xrotation Yrotation
      JOINT Neck
      {
        OFFSET 0.192181 7.854921 -0.628014
        CHANNELS 3 Zrotation Xrotation Yrotation
        JOINT Head
        {
          OFFSET -5.763646 10.493130 4.623747
          CHANNELS 3 Zrotation Xrotation Yrotation
          End Site
          {
            OFFSET 0 0 0
          }
        }
      }
      JOINT ShoulderLeft
      {
        OFFSET -10.260189 -10.319210 23.063134
        CHANNELS 3 Zrotation Xrotation Yrotation
        JOINT ElbowLeft
        {
          OFFSET 0.750147 -11.975220 -26.786711
          CHANNELS 3 Zrotation Xrotation Yrotation
          JOINT WristLeft
          {
            OFFSET -1.697812 -24.999349 -13.123680
            CHANNELS 3 Zrotation Xrotation Yrotation
            JOINT HandLeft
            {
              OFFSET 1.215384 -8.796678 -2.787798
              CHANNELS 3 Zrotation Xrotation Yrotation
              JOINT HandTipLeft
              {
                OFFSET -1.587022 -6.341705 -2.523684
                CHANNELS 3 Zrotation Xrotation Yrotation
                End Site
                {
                  OFFSET 0 0 0
                }
              }
              JOINT ThumbLeft
              {
                OFFSET -0.262779 2.940162 -4.124778
                CHANNELS 3 Zrotation Xrotation Yrotation
                End Site
                {
                  OFFSET 0 0 0
                }
              }
            }
          }
        }
      }
      JOINT ShoulderRight
      {
        OFFSET 2.114712 -5.367254 -14.963575
        CHANNELS 3 Zrotation Xrotation Yrotation
        JOINT ElbowRight
        {
          OFFSET -4.902985 -27.027583 -6.392155
          CHANNELS 3 Zrotation Xrotation Yrotation
          JOINT WristRight
          {
            OFFSET -7.187282 -23.270245 1.069553
            CHANNELS 3 Zrotation Xrotation Yrotation
            JOINT HandRight
            {
              OFFSET -1.094059 -6.278007 0.346106
              CHANNELS 3 Zrotation Xrotation Yrotation
              JOINT HandTipRight
              {
                OFFSET -2.753396 -6.373291 1.883416
                CHANNELS 3 Zrotation Xrotation Yrotation
                End Site
                {
                  OFFSET 0 0 0
                }
              }
              JOINT ThumbRight
              {
                OFFSET -2.570993 0.818800 -2.160375
                CHANNELS 3 Zrotation Xrotation Yrotation
                End Site
                {
                  OFFSET 0 0 0
                }
              }
            }
          }
        }
      }
    }
  }
  JOINT HipLeft
  {
    OFFSET -1.778336 0.005613 -0.676028
    CHANNELS 3 Zrotation Xrotation Yrotation
    JOINT KneeLeft
    {
      OFFSET 6.452966 -35.956200 8.022777
      CHANNELS 3 Zrotation Xrotation Yrotation
      JOINT AnkleLeft
      {
        OFFSET 5.035360 -43.266178 8.929487
        CHANNELS 3 Zrotation Xrotation Yrotation
        JOINT FootLeft
        {
          OFFSET -12.783027 -1.397458 -3.599071
          CHANNELS 3 Zrotation Xrotation Yrotation
          End Site
          {
            OFFSET 0 0 0
          }
        }
      }
    }
  }
  JOINT HipRight
  {
    OFFSET 1.825391 1.436451 -8.153123
    CHANNELS 3 Zrotation Xrotation Yrotation
    JOINT KneeRight
    {
      OFFSET -6.331824 -37.591068 0.965149
      CHANNELS 3 Zrotation Xrotation Yrotation
      JOINT AnkleRight
      {
        OFFSET 4.261919 -26.439802 3.321721
        CHANNELS 3 Zrotation Xrotation Yrotation
        JOINT FootRight
        {
          OFFSET -10.844524 -2.610991 -7.945034
          CHANNELS 3 Zrotation Xrotation Yrotation
          End Site
          {
            OFFSET 0 0 0
          }
        }
      }
    }
  }
}
MOTION
Frames: 16
Frame Time: 0.033333
-5.424132 84.035911 345.536129 -0.000000 0.000000 64.267377 -0.000000 0.000000 -64.267377 -0.000000 0.000000 0.000000 -0.000000 0.000000 0.000000 0.000000 0.000000 0.000000 -0.000000 0.000000 0.000000 -0.000000 0.000000 0.000000 -0.000000 0.000000 0.000000 -0.000000 0.000000 0.000000 0.000000 0.000000 0.000000 0.000000 0.000000 0.000000 -0.000000 0.000000 0.000000 -0.000000 0.000000 0.000000 -0.000000 0.000000 0.000000 -0.000000 0.000000 0.000000 0.000000 0.000000 0.000000 0.000000 0.000000 0.000000 -0.000000 0.000000 -64.267377 -0.000000 0.000000 0.000000 -0.000000 0.000000 0.000000 0.000000 0.000000 0.000000 -0.000000 0.000000 -64.267377 -0.000000 0.000000 0.000000 -0.000000 0.000000 0.000000 0.000000 0.000000 0.000000
-4.335286 83.666087 345.996021 0.843834 -0.460005 65.742482 0.137618 -0.495312 -65.674419 -1.351358 0.539562 -0.059182 -1.784885 -0.497483 0.510902 0.000000 0.000000 0.000000 -0.000000 0.000000 0.000000 -0.000000 0.000000 0.000000 -0.355190 -3.812681 -0.430955 1.433880 1.363767 0.542118 0.000000 0.000000 0.000000 0.000000 0.000000 0.000000 -0.000000 0.000000 0.000000 -0.000000 0.000000 0.000000 -2.161647 -4.286777 0.544383 0.783560 5.521226 -1.544251 0.000000 0.000000 0.000000 0.000000 0.000000 0.000000 0.067057 3.342241 -66.051778 3.263513 -2.159398 0.441559 -8.421240 5.430621 -11.457533 0.000000 0.000000 0.000000 -0.427650 2.624730 -65.806712 0.134560 -0.407544 -0.151886 9.496421 -6.059730 4.746888 0.000000 0.000000 0.000000
-3.653237 83.332915 346.335030 1.266507 -0.783973 66.819223 0.262283 -1.003862 -66.701583 -1.234198 0.451757 -0.009512 -4.103203 -0.260081 0.858042 0.000000 0.000000 0.000000 -1.056640 0.490533 -0.091971 -0.000000 0.000000 0.000000 -0.777545 -7.289024 -0.829046 2.681036 2.973717 0.876297 0.000000 0.000000 0.000000 0.000000 0.000000 0.000000 -0.743430 -0.293074 -0.024681 -1.042706 -0.036510 0.158604 -3.036001 -6.519362 0.655903 1.398929 9.550774 -2.645166 0.000000 0.000000 0.000000 0.000000 0.000000 0.000000 0.275385 5.626721 -67.367061 5.644847 -3.345580 0.857422 -13.630527 9.736290 -19.434009 0.000000 0.000000 0.000000 -0.565760 4.264812 -66.910761 0.130730 -0.704347 -0.279131 22.269035 -13.093080 12.683269 0.000000 0.000000 0.000000
-3.377984 83.036396 346.553157 1.280241 -0.976660 67.623893 0.379419 -1.513564 -67.479142 -1.460512 0.541969 -0.005347 -5.143635 -0.089759 1.176020 0.000000 0.000000 0.000000 -1.361001 0.666631 -0.117232 -0.000000 0.000000 0.000000 -1.251595 -10.280560 -1.175397 3.768426 4.578082 1.030199 0.000000 0.000000 0.000000 0.000000 0.000000 0.000000 -0.970688 -0.452402 -0.007636 -1.425800 -0.044976 0.214764 -3.882693 -8.239300 0.737570 1.907850 12.321415 -3.390368 0.000000 0.000000 0.000000 0.000000 0.000000 0.000000 0.525903 6.866144 -68.340890 7.191756 -3.654572 1.193808 -16.357267 12.321581 -24.842968 0.000000 0.000000 0.000000 -0.494170 4.919431 -67.729688 -0.114803 -0.900551 -0.391420 37.810112 -18.819261 23.965313 0.000000 0.000000 0.000000
-3.509527 82.776529 346.650401 0.893722 -1.041647 68.249264 0.492550 -2.017630 -68.100778 -1.431434 0.543148 0.002112 -5.511892 0.286898 1.416723 0.000000 0.000000 0.000000 -1.515546 0.796019 -0.130155 -0.000000 0.000000 0.000000 -1.757387 -12.662338 -1.448579 4.715858 5.977100 1.035866 0.000000 0.000000 0.000000 0.000000 0.000000 0.000000 -1.100848 -0.620595 0.027754 -1.709212 -0.038082 0.251612 -4.415850 -9.188744 0.744671 2.360991 14.001571 -3.839764 0.000000 0.000000 0.000000 0.000000 0.000000 0.000000 0.763414 7.074349 -69.061076 7.926558 -3.110030 1.425119 -17.172806 13.079134 -28.461943 0.000000 0.000000 0.000000 -0.256289 4.592202 -68.362375 -0.669905 -1.002686 -0.495343 52.179725 -21.112105 35.603396 0.000000 0.000000 0.000000
-4.047867 82.553315 346.626763 0.112314 -0.981243 68.777674 0.603190 -2.513192 -68.646989 -1.150153 0.456414 0.012339 -5.212413 0.870803 1.573552 0.000000 0.000000 0.000000 -1.520210 0.878498 -0.131427 -0.000000 0.000000 0.000000 -2.272969 -14.340286 -1.626460 5.534615 7.024844 0.925553 0.000000 0.000000 0.000000 0.000000 0.000000 0.000000 -1.133705 -0.797792 0.080787 -1.888299 -0.010364 0.266740 -4.692940 -9.481481 0.706228 2.793645 14.701836 -4.028249 0.000000 0.000000 0.000000 0.000000 0.000000 0.000000 0.958172 6.259732 -69.605061 7.850686 -1.665435 1.548713 -16.269447 11.863590 -30.611353 0.000000 0.000000 0.000000 0.123128 3.284353 -68.884183 -1.581600 -1.014670 -0.594659 61.324700 -20.784730 44.075076 0.000000 0.000000 0.000000
-5.336199 82.355459 346.310384 -1.605629 -0.547782 68.948485 0.681509 -3.410740 -68.859054 -0.368235 0.181854 0.039470 -4.046828 1.844118 1.578816 0.000000 0.000000 0.000000 -1.451680 0.958799 -0.127428 -0.000000 0.000000 0.000000 -2.867700 -15.127168 -1.649095 6.182864 8.285914 0.533073 0.000000 0.000000 0.000000 0.000000 0.000000 0.000000 -1.153263 -0.992181 0.156157 -2.016790 0.150395 0.230580 -4.464472 -8.763219 0.617745 2.475045 13.386836 -3.644844 0.000000 0.000000 0.000000 0.000000 0.000000 0.000000 -0.139895 3.626018 -69.941051 7.103672 3.411499 1.892088 -13.244372 6.611407 -30.748144 0.000000 0.000000 0.000000 0.655640 -0.031299 -68.992080 -3.578550 -0.946241 -0.765904 62.845635 -18.284502 51.220624 0.000000 0.000000 0.000000
-6.996923 82.178651 345.808001 -3.581026 0.112183 69.658565 0.603419 -4.173703 -69.612683 0.624782 -0.177529 0.070063 -1.894853 2.980248 1.348018 0.000000 0.000000 0.000000 -1.165141 0.952753 -0.106825 -0.000000 0.000000 0.000000 -3.295982 -15.124257 -1.566744 6.880936 7.782346 0.324265 0.000000 0.000000 0.000000 0.000000 0.000000 0.000000 -1.014027 -1.192929 0.247690 -1.971478 0.201830 0.203344 -4.215980 -7.754319 0.502162 2.211420 12.829192 -3.623764 0.000000 0.000000 0.000000 0.000000 0.000000 0.000000 -0.091470 0.309141 -70.506940 5.723453 6.461530 1.917995 -9.515285 0.362993 -24.697693 0.000000 0.000000 0.000000 0.977410 -4.276339 -69.534970 -5.680732 -0.557327 -0.885737 57.099795 -17.251143 50.905245 0.000000 0.000000 0.000000
-8.880207 82.079196 345.098086 -5.680669 0.979991 70.449580 0.421182 -4.754680 -70.434319 1.690570 -0.637895 0.102622 0.406388 4.015704 1.150229 0.000000 0.000000 0.000000 -0.629468 0.856572 -0.066610 -0.000000 0.000000 0.000000 -3.497592 -14.383837 -1.392005 7.234555 6.602340 0.239805 0.000000 0.000000 0.000000 0.000000 0.000000 0.000000 -0.655208 -1.439530 0.357297 -1.834083 0.380999 0.126040 -3.937949 -6.783246 0.411627 2.383991 11.681566 -3.350376 0.000000 0.000000 0.000000 0.000000 0.000000 0.000000 -0.280346 -3.988685 -71.020825 3.384411 9.687270 1.800352 1.977729 -8.572672 -19.939424 0.000000 0.000000 0.000000 1.098606 -9.091215 -70.077463 -7.568920 -0.094955 -0.927981 47.249227 -17.671525 41.392858 0.000000 0.000000 0.000000
-10.032529 82.014300 345.011413 -6.728306 0.840652 71.652039 0.764584 -4.443904 -71.666448 2.270326 -0.160698 0.089622 2.674615 4.365594 1.086150 0.000000 0.000000 0.000000 -0.000000 0.000000 0.000000 -0.000000 0.000000 0.000000 -3.985037 -13.079736 -1.051885 7.612397 5.391147 0.004882 0.000000 0.000000 0.000000 0.000000 0.000000 0.000000 -0.042065 -2.519537 0.468561 -2.048068 0.644055 0.072153 -3.277608 -5.166647 0.258947 2.125350 8.466610 -2.400011 0.000000 0.000000 0.000000 0.000000 0.000000 0.000000 1.329792 -6.649296 -71.525370 0.444000 12.259061 1.508818 18.738785 -18.043174 -7.432682 0.000000 0.000000 0.000000 1.982108 -11.592384 -71.132421 -8.355575 -0.279592 -0.869529 46.244801 -18.676722 36.620273 0.000000 0.000000 0.000000
-10.645086 81.944873 345.456296 -6.991940 0.090533 72.167103 1.287946 -3.708937 -72.226792 2.370682 -0.794197 0.073538 4.331955 5.828098 1.052394 0.000000 0.000000 0.000000 0.697523 0.620742 0.036824 -0.000000 0.000000 0.000000 -4.024589 -12.111796 -0.864073 7.431079 5.132691 -0.135650 0.000000 0.000000 0.000000 0.000000 0.000000 0.000000 0.385290 -1.952626 0.576909 -1.822510 0.431421 0.069823 -2.010173 -3.075325 0.044327 2.601990 5.812087 -1.442941 0.000000 0.000000 0.000000 0.000000 0.000000 0.000000 3.237855 -7.138373 -71.549044 -1.948044 13.767306 1.283541 30.126464 -20.064321 14.779933 0.000000 0.000000 0.000000 3.747265 -12.179517 -71.594247 -8.850558 -0.948853 -0.755484 44.791283 -19.123180 33.917094 0.000000 0.000000 0.000000
-11.351167 81.782511 345.567851 -7.266909 0.104711 72.183838 1.158949 -3.376319 -72.273212 2.151524 -0.729199 0.021053 5.860349 6.489544 1.139917 0.000000 0.000000 0.000000 1.626241 2.415123 0.034681 -0.185980 -3.303639 0.215579 -3.785314 -11.452622 -1.102397 7.176015 6.392209 -0.103209 0.000000 0.000000 0.000000 0.000000 0.000000 0.000000 0.754951 -1.648735 0.686307 -0.593899 -0.101241 0.068030 -1.526538 -1.550367 -0.143935 2.937166 3.857960 -0.613432 0.000000 0.000000 0.000000 0.000000 0.000000 0.000000 4.914919 -8.964434 -70.687175 -5.488537 14.187975 0.585736 37.065623 -20.443832 22.096623 0.000000 0.000000 0.000000 4.355143 -13.138663 -71.515107 -9.258573 -0.943518 -0.649148 43.158563 -19.074988 33.663360 0.000000 0.000000 0.000000
-12.152116 81.629426 345.868919 -7.531582 0.116320 71.434420 0.884274 -3.222563 -71.558654 1.267563 -0.847488 -0.086268 7.854126 7.178542 1.042536 0.000000 0.000000 0.000000 2.926575 0.934066 0.187560 -0.000000 0.000000 0.000000 -3.219336 -9.852123 -0.641600 6.112179 4.486473 -0.098562 0.000000 0.000000 0.000000 0.000000 0.000000 0.000000 1.404908 -0.843005 0.872423 1.146390 -0.809735 0.070569 -1.218699 -0.746641 -0.266431 3.811143 3.881176 -0.279062 0.000000 0.000000 0.000000 0.000000 0.000000 0.000000 7.348182 -11.148761 -68.666085 -9.192577 11.956270 -0.758387 38.795695 -18.921373 24.049240 0.000000 0.000000 0.000000 5.377968 -14.016280 -70.630033 -9.785730 -0.975302 -0.510217 45.947132 -21.090901 31.380749 0.000000 0.000000 0.000000
-12.103449 81.565051 346.521802 -6.547402 -0.182791 69.084421 0.839549 -2.415815 -69.220136 0.570878 -0.379004 -0.135841 8.104623 6.838627 1.198451 0.000000 0.000000 0.000000 3.325141 -1.717276 0.322724 0.248474 4.163173 -0.288764 -2.066208 -9.575049 -0.473965 4.851279 3.274422 0.022258 0.000000 0.000000 0.000000 0.000000 0.000000 0.000000 1.315550 -0.272980 0.909470 3.169682 -1.685298 0.171212 -1.756094 -1.596428 -0.122622 4.076322 5.844280 -0.762880 0.000000 0.000000 0.000000 0.000000 0.000000 0.000000 8.872979 -10.618772 -65.828227 -12.050775 7.515756 -2.163760 36.589466 -16.245889 14.928171 0.000000 0.000000 0.000000 6.647263 -12.142683 -68.391226 -9.379629 -1.566226 -0.353631 46.655051 -22.001467 30.250089 0.000000 0.000000 0.000000
-12.373176 81.660185 347.065856 -5.793901 -0.283956 66.670079 0.868840 -1.664685 -66.805058 0.492765 0.024522 -0.135308 6.492243 5.707648 1.748334 0.000000 0.000000 0.000000 3.284981 -3.633227 0.394442 0.400679 6.580173 -0.462706 -0.715913 -9.173404 -0.476887 3.496551 3.002742 0.099141 0.000000 0.000000 0.000000 0.000000 0.000000 0.000000 1.042240 0.113675 0.836720 4.441213 -2.633751 0.387227 -1.684628 -2.322089 0.027428 2.915177 8.807261 -2.030172 0.000000 0.000000 0.000000 0.000000 0.000000 0.000000 8.803863 -8.404053 -63.827997 -8.828890 8.013564 -1.435329 38.994327 -16.800977 20.549271 0.000000 0.000000 0.000000 7.606641 -10.907969 -66.059581 -9.274022 -2.027751 -0.236924 47.453342 -22.710432 29.753498 0.000000 0.000000 0.000000
-12.365993 82.087899 347.407975 -4.735569 -0.041283 64.189090 0.834058 -0.991335 -64.304171 0.531724 0.332404 -0.107426 2.881909 3.307700 2.403076 0.000000 0.000000 0.000000 2.777661 -5.224136 0.414262 0.496886 8.049110 -0.570152 0.777335 -7.817532 -0.468124 2.183411 1.390682 0.288479 0.000000 0.000000 0.000000 0.000000 0.000000 0.000000 0.000969 0.385454 0.773108 6.330824 -3.303079 0.502817 -2.729155 -3.927608 0.340136 5.196790 12.097544 -3.003542 0.000000 0.000000 0.000000 0.000000 0.000000 0.000000 8.379075 -7.188350 -61.508053 -10.637363 11.507613 -1.189002 42.346135 -18.088910 29.025559 0.000000 0.000000 0.000000 7.741775 -9.621400 -63.693158 -9.248088 -2.112534 -0.145690 40.441367 -20.889996 27.725814 0.000000 0.000000 0.000000
